<svg width="20" height="20" viewBox="0 0 20 20" fill="none" xmlns="http://www.w3.org/2000/svg">
<g opacity="0.2">
<rect opacity="0.01" width="20" height="20" fill="black"/>
<path d="M7.74165 17.5C6.35092 17.4933 5.02102 16.9289 4.04998 15.9333C3.08638 15.02 2.52557 13.761 2.49118 12.4338C2.45679 11.1067 2.95164 9.82028 3.86665 8.85832L9.99998 2.66666C10.6618 2.006 11.5651 1.64471 12.5 1.66666C13.5011 1.67006 14.4589 2.0754 15.1583 2.79166C16.5926 4.17257 16.6483 6.45057 15.2833 7.89999L9.11665 14.0917C8.71768 14.4933 8.17444 14.7184 7.60831 14.7167C6.99663 14.7175 6.41059 14.471 5.98331 14.0333C5.10351 13.1815 5.07377 11.78 5.91665 10.8917L11.6083 5.17499C11.9425 4.95303 12.3874 5.00071 12.667 5.28846C12.9466 5.5762 12.9815 6.02231 12.75 6.34999L7.05831 12.0667C6.86085 12.3045 6.89052 12.6568 7.12498 12.8583C7.24224 12.9764 7.40032 13.045 7.56665 13.05C7.69109 13.0518 7.81109 13.0038 7.89998 12.9167L14.0583 6.72499C14.7776 5.92593 14.7219 4.69738 13.9333 3.96666C13.2024 3.20778 12.0057 3.15288 11.2083 3.84166L5.04998 9.99999C4.44514 10.6496 4.12438 11.5137 4.1588 12.4006C4.19321 13.2876 4.57995 14.1242 5.23331 14.725C5.88861 15.4043 6.78948 15.7917 7.73331 15.8C8.54695 15.8066 9.32968 15.4887 9.90831 14.9167L16.0666 8.72499C16.3911 8.39822 16.919 8.39635 17.2458 8.72082C17.5726 9.04529 17.5744 9.57322 17.25 9.89999L11.0916 16.0917C10.2084 16.9905 9.00178 17.4978 7.74165 17.5Z" fill="black"/>
</g>
</svg>
