<svg width="19" height="19" viewBox="0 0 19 19" fill="none" xmlns="http://www.w3.org/2000/svg">
<g opacity="0.2">
<rect opacity="0.01" width="19" height="19" fill="black"/>
<rect opacity="0.01" width="19" height="19" fill="black"/>
<path fill-rule="evenodd" clip-rule="evenodd" d="M1.58337 9.50001C1.58337 5.12776 5.12779 1.58334 9.50004 1.58334C11.5997 1.58334 13.6133 2.41742 15.098 3.90208C16.5826 5.38674 17.4167 7.40038 17.4167 9.50001C17.4167 13.8723 13.8723 17.4167 9.50004 17.4167C5.12779 17.4167 1.58337 13.8723 1.58337 9.50001ZM10.9171 3.33293C10.4523 3.22555 9.97708 3.16979 9.50004 3.16668C6.00224 3.16668 3.16671 6.00221 3.16671 9.50001C3.16791 9.88227 3.20234 10.2637 3.26962 10.64C4.29879 11.0675 5.95337 11.5425 7.03796 10.6954C7.79004 10.1333 7.79004 9.50001 7.79004 8.42334C7.72165 7.52453 7.89092 6.62354 8.28087 5.81084C8.63683 5.2427 9.14397 4.7849 9.74546 4.48876C9.78175 4.46608 9.81804 4.44368 9.85422 4.42136L9.85425 4.42134C10.0075 4.32679 10.1587 4.23346 10.2996 4.12459C10.5674 3.91549 10.7795 3.64357 10.9171 3.33293ZM3.95837 12.5083C4.47567 12.6428 5.00727 12.7146 5.54171 12.7221C6.43597 12.7467 7.3122 12.4676 8.02754 11.9304C9.38129 10.8696 9.38129 9.50793 9.38129 8.41543C9.32125 7.78311 9.42201 7.14587 9.67421 6.56293C9.90332 6.25094 10.2086 6.00291 10.5609 5.84251C10.8126 5.69542 11.0557 5.53419 11.2892 5.35959C11.7812 4.97098 12.1632 4.46069 12.3975 3.87918C13.5114 4.44907 14.4315 5.33609 15.0417 6.42834C13.9096 6.58668 12.3025 6.95876 11.9859 8.43126C11.9144 8.78308 11.8773 9.14101 11.875 9.50001C11.9007 9.90127 11.8216 10.3023 11.6455 10.6638L11.5663 10.7983C11.0517 11.6533 10.4738 12.6271 11.2575 13.965C11.3525 14.1312 11.4554 14.2896 11.5583 14.4479L11.5584 14.4479L11.5584 14.4479C11.7691 14.6913 11.9112 14.9864 11.97 15.3029C11.1914 15.6461 10.3509 15.8266 9.50004 15.8333C7.18377 15.8218 5.05859 14.5467 3.95837 12.5083ZM12.9042 13.6008C13.099 13.885 13.266 14.1872 13.403 14.5033L13.3792 14.5429C15.38 13.0096 16.2713 10.4293 15.6434 7.98793C14.8834 8.04334 13.6563 8.20168 13.5296 8.77959C13.4814 9.04071 13.4576 9.30574 13.4584 9.57126C13.4887 10.239 13.3411 10.9029 13.0309 11.495L12.9517 11.6296C12.453 12.4213 12.3421 12.6746 12.6509 13.2129C12.73 13.3475 12.8171 13.4742 12.9042 13.6008Z" fill="black"/>
</g>
</svg>
