<svg width="19" height="19" viewBox="0 0 19 19" fill="none" xmlns="http://www.w3.org/2000/svg">
<g opacity="0.2">
<rect opacity="0.01" width="19" height="19" fill="black"/>
<path fill-rule="evenodd" clip-rule="evenodd" d="M16.4588 8.97751L13.8146 3.68918C13.4118 2.88234 12.5868 2.37324 11.685 2.37501H7.31502C6.41324 2.37324 5.58824 2.88234 5.18544 3.68918L2.54127 8.97751C2.43099 9.19877 2.37406 9.44279 2.37502 9.69001V14.25C2.37502 15.5617 3.43835 16.625 4.75002 16.625H14.25C15.5617 16.625 16.625 15.5617 16.625 14.25V9.69001C16.626 9.44279 16.5691 9.19877 16.4588 8.97751ZM6.60252 4.39376C6.73795 4.12499 7.01407 3.95625 7.31502 3.95834H11.685C11.986 3.95625 12.2621 4.12499 12.3975 4.39376L14.5509 8.70834H4.44919L6.60252 4.39376ZM4.75002 15.0417H14.25C14.6873 15.0417 15.0417 14.6872 15.0417 14.25V10.2917H3.95836V14.25C3.95836 14.6872 4.3128 15.0417 4.75002 15.0417Z" fill="black"/>
<path d="M12.6667 11.875H9.50004C9.06282 11.875 8.70837 12.2294 8.70837 12.6667C8.70837 13.1039 9.06282 13.4583 9.50004 13.4583H12.6667C13.1039 13.4583 13.4584 13.1039 13.4584 12.6667C13.4584 12.2294 13.1039 11.875 12.6667 11.875Z" fill="black"/>
<path d="M6.33329 13.4583C6.77052 13.4583 7.12496 13.1039 7.12496 12.6667C7.12496 12.2294 6.77052 11.875 6.33329 11.875C5.89607 11.875 5.54163 12.2294 5.54163 12.6667C5.54163 13.1039 5.89607 13.4583 6.33329 13.4583Z" fill="black"/>
</g>
</svg>
