<svg width="14" height="12" viewBox="0 0 14 12" fill="none" xmlns="http://www.w3.org/2000/svg">
<path d="M1.16665 6.83329H11.05L8.02498 10.4666C7.73043 10.821 7.77893 11.3471 8.13331 11.6416C8.4877 11.9362 9.01376 11.8877 9.30831 11.5333L13.475 6.53329C13.503 6.49352 13.5281 6.45174 13.55 6.40829C13.55 6.36663 13.5916 6.34163 13.6083 6.29996C13.6461 6.20441 13.6659 6.1027 13.6666 5.99996C13.6659 5.89722 13.6461 5.79551 13.6083 5.69996C13.6083 5.65829 13.5666 5.63329 13.55 5.59163C13.5281 5.54818 13.503 5.5064 13.475 5.46663L9.30831 0.466628C9.14968 0.276177 8.91451 0.166225 8.66665 0.166628C8.47194 0.166247 8.28324 0.23406 8.13331 0.358294C7.96289 0.499584 7.85569 0.702878 7.83537 0.923318C7.81504 1.14376 7.88326 1.36323 8.02498 1.53329L11.05 5.16663H1.16665C0.706409 5.16663 0.333313 5.53972 0.333313 5.99996C0.333313 6.4602 0.706409 6.83329 1.16665 6.83329Z" fill="black"/>
</svg>
