<svg width="20" height="20" viewBox="0 0 20 20" fill="none" xmlns="http://www.w3.org/2000/svg">
<g opacity="0.2">
<rect opacity="0.01" width="20" height="20" fill="black"/>
<path d="M9.99996 9.99998C10.4602 9.99998 10.8333 9.62688 10.8333 9.16665C10.8333 8.70641 10.4602 8.33331 9.99996 8.33331C9.53972 8.33331 9.16663 8.70641 9.16663 9.16665C9.16663 9.62688 9.53972 9.99998 9.99996 9.99998Z" fill="black"/>
<path d="M13.3333 9.99998C13.7936 9.99998 14.1667 9.62688 14.1667 9.16665C14.1667 8.70641 13.7936 8.33331 13.3333 8.33331C12.8731 8.33331 12.5 8.70641 12.5 9.16665C12.5 9.62688 12.8731 9.99998 13.3333 9.99998Z" fill="black"/>
<path d="M6.66671 9.99998C7.12694 9.99998 7.50004 9.62688 7.50004 9.16665C7.50004 8.70641 7.12694 8.33331 6.66671 8.33331C6.20647 8.33331 5.83337 8.70641 5.83337 9.16665C5.83337 9.62688 6.20647 9.99998 6.66671 9.99998Z" fill="black"/>
<path fill-rule="evenodd" clip-rule="evenodd" d="M4.16663 2.5H15.8333C17.214 2.5 18.3333 3.61929 18.3333 5V13.3333C18.3333 14.714 17.214 15.8333 15.8333 15.8333H7.12496C6.96412 15.8271 6.80493 15.8677 6.66663 15.95L2.92496 18.2167C2.79633 18.293 2.64953 18.3333 2.49996 18.3333C2.3568 18.3329 2.21617 18.2956 2.09163 18.225C1.82955 18.0777 1.66714 17.8006 1.66663 17.5V5C1.66663 3.61929 2.78591 2.5 4.16663 2.5ZM15.8333 14.1667C16.2935 14.1667 16.6666 13.7936 16.6666 13.3333V5C16.6666 4.53976 16.2935 4.16667 15.8333 4.16667H4.16663C3.70639 4.16667 3.33329 4.53976 3.33329 5V16.025L5.83329 14.525C6.2232 14.2902 6.66981 14.1663 7.12496 14.1667H15.8333Z" fill="black"/>
</g>
</svg>
